<?xml version="1.0" standalone="no"?>
<!DOCTYPE svg PUBLIC "-//W3C//DTD SVG 20010904//EN"
 "http://www.w3.org/TR/2001/REC-SVG-20010904/DTD/svg10.dtd">
<svg version="1.0" xmlns="http://www.w3.org/2000/svg"
 width="512.000000pt" height="512.000000pt" viewBox="0 0 512.000000 512.000000"
 preserveAspectRatio="xMidYMid meet">

<g transform="translate(0.000000,512.000000) scale(0.100000,-0.100000)"
fill="#000000" stroke="none">
<path d="M2454 4535 c-26 -19 1 -20 36 0 23 13 23 14 4 15 -11 0 -29 -7 -40
-15z"/>
<path d="M2800 4501 c-36 -3 -60 -9 -54 -13 18 -12 126 -11 157 1 55 21 34 24
-103 12z"/>
<path d="M2984 4475 c-17 -13 -15 -14 31 -14 46 0 48 1 31 14 -11 8 -25 15
-31 15 -6 0 -20 -7 -31 -15z"/>
<path d="M3168 4443 c6 -2 18 -2 25 0 6 3 1 5 -13 5 -14 0 -19 -2 -12 -5z"/>
<path d="M3350 4415 c-7 -9 -10 -18 -7 -22 8 -7 37 15 37 28 0 14 -16 11 -30
-6z"/>
<path d="M3430 4368 l-44 -10 39 -20 c22 -11 58 -21 80 -23 22 -1 76 -5 120
-8 71 -6 76 -5 45 6 -19 7 -40 15 -45 19 -14 9 -133 48 -142 47 -4 -1 -28 -6
-53 -11z"/>
<path d="M2079 4274 c-4 -37 -2 -40 16 -36 11 3 14 7 7 10 -7 2 -10 7 -7 12 3
4 1 19 -4 32 -7 20 -9 18 -12 -18z"/>
<path d="M2691 4302 c-15 -5 -14 -39 2 -49 6 -4 21 -9 32 -10 11 -1 40 -6 65
-12 25 -5 52 -11 60 -13 8 -2 18 -7 22 -13 4 -5 8 2 8 16 0 49 -28 69 -106 77
-39 4 -76 6 -83 4z"/>
<path d="M2445 4275 c-30 -14 -30 -14 15 -8 25 3 52 9 60 14 26 15 -42 9 -75
-6z"/>
<path d="M2910 4272 c0 -5 7 -15 15 -22 8 -7 15 -8 15 -2 0 5 -7 15 -15 22 -8
7 -15 8 -15 2z"/>
<path d="M3775 4260 c-33 -15 -36 -19 -17 -19 13 -1 35 8 49 19 31 24 21 24
-32 0z"/>
<path d="M2556 4261 c5 -5 33 -11 63 -13 29 -3 47 -2 40 2 -20 11 -114 21
-103 11z"/>
<path d="M3130 4220 c0 -12 17 -12 45 0 17 7 15 9 -12 9 -18 1 -33 -3 -33 -9z"/>
<path d="M3860 4210 c8 -5 20 -10 25 -10 6 0 3 5 -5 10 -8 5 -19 10 -25 10 -5
0 -3 -5 5 -10z"/>
<path d="M3915 4210 c-4 -6 6 -10 22 -10 22 0 25 2 13 10 -19 12 -27 12 -35 0z"/>
<path d="M3910 4155 c7 -8 16 -15 21 -15 5 0 9 7 9 15 0 9 -9 15 -21 15 -18 0
-19 -2 -9 -15z"/>
<path d="M3959 4151 c16 -28 34 -31 48 -7 12 21 12 21 13 -2 0 -28 20 -25 31
5 7 18 3 20 -47 22 -52 1 -54 0 -45 -18z"/>
<path d="M4087 4157 c-11 -29 -9 -53 4 -40 6 6 9 21 7 34 -3 21 -4 22 -11 6z"/>
<path d="M4205 4080 c-3 -6 1 -7 9 -4 18 7 21 14 7 14 -6 0 -13 -4 -16 -10z"/>
<path d="M4225 4060 c-3 -6 1 -7 9 -4 18 7 21 14 7 14 -6 0 -13 -4 -16 -10z"/>
<path d="M3355 4041 c-19 -8 -19 -8 2 -19 12 -7 30 -12 40 -13 15 0 15 -2 -4
-11 -17 -8 -29 -6 -57 11 -21 13 -37 18 -41 11 -6 -10 49 -49 75 -51 8 -1 20
-3 25 -4 6 -2 22 -3 38 -4 15 0 27 -5 27 -10 0 -9 46 -62 127 -145 l48 -48
-81 55 c-110 75 -141 90 -150 74 -4 -6 -4 -9 1 -5 8 8 70 -20 62 -29 -7 -7 32
-81 47 -91 6 -4 29 -31 51 -61 21 -30 48 -64 59 -76 46 -48 88 -100 101 -125
14 -27 36 -33 154 -43 32 -3 50 26 33 53 -6 11 -12 31 -12 46 0 32 -17 64 -34
64 -7 0 -18 11 -26 24 -7 14 -35 44 -62 68 -58 50 -188 200 -188 216 0 7 -11
19 -24 28 -14 8 -23 21 -20 28 2 6 -10 22 -27 35 -33 25 -124 37 -164 22z
m175 -251 c0 -5 -5 -10 -11 -10 -5 0 -7 5 -4 10 3 6 8 10 11 10 2 0 4 -4 4
-10z m300 -195 c30 -30 52 -55 49 -55 -2 0 -29 25 -59 55 -30 30 -52 55 -49
55 2 0 29 -25 59 -55z"/>
<path d="M3005 4000 c-10 -11 -32 -20 -49 -21 l-31 -1 30 -9 c26 -7 34 -5 60
21 16 17 25 30 19 30 -6 0 -19 -9 -29 -20z"/>
<path d="M3049 4005 c-1 -5 -1 -14 0 -18 1 -5 -8 -20 -19 -34 -11 -14 -20 -31
-20 -37 0 -6 11 2 23 18 17 20 26 26 31 17 5 -8 13 -4 27 13 10 13 19 28 19
32 0 5 -8 -2 -17 -16 l-17 -24 -13 30 c-6 16 -13 25 -14 19z"/>
<path d="M3152 3976 c-50 -36 -51 -41 -4 -17 23 12 42 26 42 31 0 13 1 13 -38
-14z"/>
<path d="M2880 3980 c0 -5 5 -10 11 -10 5 0 7 5 4 10 -3 6 -8 10 -11 10 -2 0
-4 -4 -4 -10z"/>
<path d="M2689 3953 c-13 -16 -12 -17 4 -4 16 13 21 21 13 21 -2 0 -10 -8 -17
-17z"/>
<path d="M2924 3941 c19 -21 19 -21 -5 -22 -23 -1 -21 -2 21 -15 13 -5 13 -6
0 -14 -12 -8 -10 -10 7 -10 20 0 21 3 11 30 -5 17 -20 35 -32 42 -21 11 -21
11 -2 -11z"/>
<path d="M3301 3947 c2 -1 13 -9 24 -17 19 -14 19 -14 6 3 -7 9 -18 17 -24 17
-6 0 -8 -1 -6 -3z"/>
<path d="M3356 3917 c3 -10 9 -15 12 -12 3 3 0 11 -7 18 -10 9 -11 8 -5 -6z"/>
<path d="M4335 3900 c28 -12 37 -12 30 0 -3 6 -16 10 -28 9 -21 0 -21 -1 -2
-9z"/>
<path d="M2990 3891 c0 -6 4 -13 10 -16 6 -3 7 1 4 9 -7 18 -14 21 -14 7z"/>
<path d="M2880 3870 c0 -5 5 -10 10 -10 6 0 10 5 10 10 0 6 -4 10 -10 10 -5 0
-10 -4 -10 -10z"/>
<path d="M4368 3843 c6 -2 18 -2 25 0 6 3 1 5 -13 5 -14 0 -19 -2 -12 -5z"/>
<path d="M4308 3832 c9 -6 6 -12 -13 -20 -14 -6 -25 -15 -25 -19 1 -13 34 -50
61 -67 l27 -17 -20 41 c-19 38 -19 42 -4 65 16 25 16 25 -11 25 -18 0 -24 -3
-15 -8z"/>
<path d="M4330 3658 c0 -5 16 -25 36 -46 29 -30 33 -32 20 -10 -20 35 -20 46
2 50 9 3 0 6 -20 9 -21 3 -38 1 -38 -3z"/>
<path d="M3935 3580 c-4 -7 -1 -40 6 -73 7 -34 15 -54 17 -44 5 26 20 20 37
-15 11 -23 14 -26 11 -10 -3 13 0 36 5 52 11 31 -2 70 -23 70 -6 0 -19 7 -29
16 -12 11 -19 12 -24 4z"/>
<path d="M4138 3474 c-16 -8 -28 -18 -28 -23 0 -20 123 -92 135 -79 3 3 -4 15
-15 28 -11 13 -20 28 -20 34 -1 11 -35 56 -42 56 -1 -1 -15 -8 -30 -16z"/>
<path d="M4436 3445 c9 -39 19 -59 40 -76 12 -9 8 3 -11 41 -34 68 -39 73 -29
35z"/>
<path d="M4043 3415 c4 -9 7 -21 7 -26 0 -5 16 -27 35 -48 20 -22 49 -63 66
-93 17 -29 27 -42 24 -28 -4 14 -27 55 -51 92 -24 36 -44 70 -44 75 0 5 -10
17 -22 27 -19 16 -20 17 -15 1z"/>
<path d="M1068 3392 c-37 -27 -53 -50 -43 -60 3 -4 27 15 53 41 52 52 47 60
-10 19z"/>
<path d="M4137 3363 c3 -10 11 -25 18 -33 18 -23 48 -111 50 -145 1 -17 7 -30
15 -30 14 0 25 -15 40 -58 6 -17 14 -25 22 -21 6 4 8 3 5 -3 -3 -5 5 -21 19
-36 14 -15 24 -38 24 -56 0 -16 5 -33 11 -36 6 -5 9 -31 6 -71 -3 -41 -1 -69
6 -77 7 -7 13 -19 15 -26 2 -8 9 -26 16 -40 13 -23 14 -20 22 50 4 41 7 90 5
109 -5 67 -42 213 -59 239 -10 14 -31 56 -46 93 -22 54 -39 76 -83 113 -57 47
-98 60 -86 28z"/>
<path d="M1012 3294 c-19 -13 -22 -24 -21 -72 l1 -57 8 46 c4 26 16 58 25 73
20 30 18 32 -13 10z"/>
<path d="M4480 3292 c0 -4 4 -13 9 -20 7 -11 9 -11 14 1 3 9 -1 18 -9 21 -8 3
-14 2 -14 -2z"/>
<path d="M937 3217 c-4 -10 -7 -31 -6 -45 l0 -27 10 25 c5 13 8 33 7 45 -3 19
-4 19 -11 2z"/>
<path d="M886 3143 c-6 -14 -5 -15 5 -6 7 7 10 15 7 18 -3 3 -9 -2 -12 -12z"/>
<path d="M4550 3108 c0 -27 11 -48 26 -48 19 0 17 14 -6 41 -15 19 -19 21 -20
7z"/>
<path d="M979 3076 c-21 -24 -25 -38 -21 -65 5 -34 5 -34 28 29 13 36 22 65
21 66 -1 0 -14 -13 -28 -30z"/>
<path d="M4095 3071 c4 -7 -4 -11 -19 -11 -31 0 -32 -2 -5 -54 12 -22 25 -48
29 -56 4 -8 23 -45 43 -83 l37 -68 0 -143 c0 -78 3 -146 7 -149 3 -4 8 -17 9
-30 3 -33 26 -111 34 -117 4 -3 10 -14 13 -25 4 -11 5 -5 3 13 -1 17 1 32 6
32 4 0 8 62 7 138 0 143 -18 279 -38 291 -6 4 -9 15 -5 24 3 10 1 24 -6 32 -7
8 -10 22 -6 30 3 8 2 15 -2 15 -4 0 -8 13 -8 28 -1 25 -18 73 -43 122 -5 8
-20 16 -36 18 -17 2 -25 0 -20 -7z"/>
<path d="M806 2995 c-9 -26 -7 -32 5 -12 6 10 9 21 6 23 -2 3 -7 -2 -11 -11z"/>
<path d="M4596 2900 c8 -49 22 -95 28 -89 3 2 0 29 -6 59 -12 68 -32 95 -22
30z"/>
<path d="M1166 2901 c-14 -15 -19 -38 -20 -88 0 -38 -5 -71 -11 -75 -15 -11
-19 -345 -5 -425 6 -37 14 -86 16 -108 13 -111 149 -450 215 -535 11 -14 22
-39 25 -55 25 -151 53 -235 79 -235 7 0 17 -10 21 -22 3 -11 55 -73 115 -136
60 -62 109 -118 109 -122 0 -17 130 -110 154 -110 14 0 28 -4 31 -10 8 -13 55
-13 55 -1 0 5 -12 11 -27 13 -28 3 -28 3 -6 16 27 15 77 -2 112 -37 15 -15 28
-20 46 -15 25 6 75 57 75 75 0 5 7 9 15 9 25 0 73 28 77 45 2 13 7 12 22 -6
14 -17 15 -21 3 -16 -10 4 -22 -4 -33 -21 -14 -22 -15 -25 -2 -14 14 11 18 10
30 -6 12 -18 15 -16 38 34 13 30 28 54 33 54 4 0 5 4 2 10 -4 6 -13 5 -26 -3
-16 -10 -21 -9 -28 1 -5 8 -27 14 -56 14 -38 0 -53 -6 -77 -29 l-31 -28 5 28
c3 16 1 27 -6 27 -6 0 -33 24 -59 52 l-48 53 -18 -23 c-22 -30 -31 -19 -19 24
11 41 4 54 -61 124 -22 24 -44 53 -47 63 -7 21 -56 88 -98 133 -14 16 -26 32
-26 36 0 5 -8 16 -17 26 -10 10 -34 38 -55 63 -20 24 -46 55 -58 69 -28 32
-97 122 -130 170 -30 43 -37 56 -108 180 -29 52 -58 97 -63 98 -5 2 -9 12 -9
23 0 10 -4 19 -8 19 -16 0 -33 71 -47 201 -8 74 -21 161 -29 195 -9 38 -14 96
-12 157 3 112 -7 142 -38 108z m742 -1751 c6 0 13 -4 16 -9 12 -18 -33 2 -51
22 -18 22 -18 22 3 5 11 -10 26 -18 32 -18z m190 -93 c12 -3 20 -1 16 4 -3 5
-1 9 4 9 15 0 24 -33 11 -41 -12 -7 -107 49 -108 64 -1 5 11 0 27 -11 15 -10
37 -21 50 -25z"/>
<path d="M939 2793 c0 -10 -3 -29 -5 -43 -2 -14 -7 -65 -10 -113 -6 -84 -5
-89 15 -94 14 -3 21 -12 19 -22 -2 -9 2 -20 9 -26 11 -8 11 -20 -1 -65 -8 -30
-13 -71 -11 -90 1 -19 -1 -43 -6 -52 -23 -44 91 -418 157 -513 44 -65 54 -74
47 -43 -5 21 -2 20 21 -7 14 -16 38 -49 53 -72 34 -52 57 -66 42 -25 -6 15
-20 37 -31 50 -27 27 -15 29 22 2 37 -26 54 -79 52 -162 -2 -60 0 -69 20 -80
30 -17 56 -18 61 -4 7 19 -19 167 -37 212 -10 23 -27 50 -39 61 -12 11 -29 30
-37 43 -8 12 -20 28 -25 34 -23 26 -44 65 -56 107 -7 24 -25 58 -40 74 -73 81
-115 240 -123 470 -2 77 -9 153 -15 168 -6 15 -10 31 -9 35 4 13 -24 112 -33
118 -5 3 -9 16 -9 30 0 28 -30 34 -31 7z m331 -1083 c0 -5 -5 -10 -11 -10 -5
0 -7 5 -4 10 3 6 8 10 11 10 2 0 4 -4 4 -10z"/>
<path d="M4640 2559 c0 -16 4 -28 9 -25 8 5 3 56 -5 56 -2 0 -4 -14 -4 -31z"/>
<path d="M4414 2497 c-16 -33 -16 -38 0 -76 9 -23 16 -62 16 -88 0 -25 2 -44
4 -42 5 5 18 135 20 193 1 51 -19 57 -40 13z"/>
<path d="M760 2351 c0 -17 4 -32 8 -35 4 -2 6 11 4 30 -5 42 -12 45 -12 5z"/>
<path d="M781 2194 c0 -11 3 -14 6 -6 3 7 2 16 -1 19 -3 4 -6 -2 -5 -13z"/>
<path d="M820 1735 c0 -8 9 -19 20 -25 18 -10 19 -9 8 15 -12 27 -28 33 -28
10z"/>
<path d="M950 1396 c0 -2 8 -10 18 -17 15 -13 16 -12 3 4 -13 16 -21 21 -21
13z"/>
<path d="M940 1356 c0 -2 11 -6 25 -8 14 -3 25 -1 25 3 0 5 -11 9 -25 9 -14 0
-25 -2 -25 -4z"/>
<path d="M960 1298 c3 -3 33 -30 67 -61 35 -32 58 -57 52 -57 -5 0 -7 -4 -4
-10 3 -5 18 -10 33 -10 25 0 23 4 -33 55 -33 31 -73 63 -90 71 -16 9 -28 14
-25 12z"/>
<path d="M2440 1220 c-8 -5 -10 -10 -5 -10 6 0 17 5 25 10 8 5 11 10 5 10 -5
0 -17 -5 -25 -10z"/>
<path d="M2375 1184 c-12 -19 -23 -24 -37 -20 -20 5 -20 4 -5 -11 15 -15 18
-15 36 1 16 15 36 56 26 56 -1 0 -10 -12 -20 -26z"/>
<path d="M2447 1182 c-24 -27 -21 -49 8 -55 25 -4 25 -4 8 15 -14 16 -15 23
-5 39 15 24 10 25 -11 1z"/>
<path d="M1095 1140 c27 -12 43 -12 25 0 -8 5 -22 9 -30 9 -10 0 -8 -3 5 -9z"/>
<path d="M2268 1143 c7 -3 16 -2 19 1 4 3 -2 6 -13 5 -11 0 -14 -3 -6 -6z"/>
<path d="M2361 1123 c2 -28 16 -39 39 -32 18 5 20 7 6 8 -12 1 -16 6 -12 16 4
10 -1 15 -14 15 -11 0 -20 -3 -19 -7z"/>
<path d="M3295 1100 c-7 -12 2 -30 16 -30 6 0 7 5 4 10 -3 6 5 10 19 10 14 0
28 5 31 10 4 6 -8 10 -29 10 -19 0 -38 -4 -41 -10z"/>
<path d="M1151 1074 c7 -9 22 -19 32 -23 18 -7 18 -8 2 -24 -15 -16 -15 -17
12 -17 15 0 35 5 43 10 13 9 13 11 0 19 -8 5 -18 7 -22 5 -4 -3 -8 -1 -8 3 0
9 -52 43 -65 43 -4 0 -1 -7 6 -16z"/>
<path d="M2594 1068 l-19 -23 23 19 c21 18 27 26 19 26 -2 0 -12 -10 -23 -22z"/>
<path d="M3515 1080 c-3 -6 1 -7 9 -4 18 7 21 14 7 14 -6 0 -13 -4 -16 -10z"/>
<path d="M2624 1048 l-19 -23 23 19 c21 18 27 26 19 26 -2 0 -12 -10 -23 -22z"/>
<path d="M2317 1025 c-25 -35 -15 -44 49 -44 31 1 61 -4 67 -10 16 -16 47 -13
47 4 0 8 6 15 13 16 6 0 2 4 -10 9 -13 5 -23 16 -23 25 0 11 -12 15 -49 15
-27 0 -55 2 -63 5 -7 2 -21 -7 -31 -20z"/>
<path d="M2880 984 c0 -6 7 -17 16 -25 12 -10 17 -10 23 -1 4 7 27 16 52 21
35 7 38 9 17 11 -73 6 -108 4 -108 -6z"/>
<path d="M2284 981 c5 -7 1 -9 -8 -5 -9 3 -16 1 -16 -5 0 -6 12 -11 26 -11 26
0 30 20 4 28 -7 3 -10 0 -6 -7z"/>
<path d="M3437 975 c-4 -8 -12 -14 -19 -13 -18 4 -22 -38 -4 -45 10 -4 18 5
26 29 12 35 8 60 -3 29z"/>
<path d="M1258 950 c17 -6 32 -15 32 -20 0 -6 11 -8 26 -4 19 5 25 3 20 -4 -5
-8 -1 -10 9 -6 27 11 -20 36 -74 40 -44 4 -44 3 -13 -6z"/>
<path d="M3457 933 c-9 -30 -6 -82 4 -88 5 -4 9 -3 10 2 0 4 2 18 5 31 3 15 0
21 -7 16 -8 -4 -9 3 -4 25 7 32 0 44 -8 14z"/>
<path d="M2311 926 c-9 -11 -7 -15 7 -18 10 -3 26 -22 36 -42 9 -20 22 -36 29
-36 7 1 29 20 49 44 35 41 35 43 13 38 -14 -2 -43 3 -65 12 -49 20 -54 20 -69
2z"/>
<path d="M3300 907 c0 -8 -10 -22 -22 -30 -19 -13 -20 -16 -6 -16 17 -1 48 24
48 39 0 5 -4 12 -10 15 -5 3 -10 0 -10 -8z"/>
<path d="M1340 890 c0 -5 5 -10 10 -10 6 0 10 5 10 10 0 6 -4 10 -10 10 -5 0
-10 -4 -10 -10z"/>
<path d="M2486 870 c-55 -35 -58 -56 -13 -75 39 -16 63 -17 282 -19 161 -1
238 9 269 35 10 9 -20 18 -59 17 -41 -1 -114 13 -120 22 -3 5 -30 6 -60 4 -32
-2 -55 0 -55 6 0 6 -31 10 -74 9 -41 -1 -80 3 -88 7 -23 15 -52 13 -82 -6z"/>
<path d="M1398 873 c7 -3 16 -2 19 1 4 3 -2 6 -13 5 -11 0 -14 -3 -6 -6z"/>
<path d="M1383 843 c9 -2 25 -2 35 0 9 3 1 5 -18 5 -19 0 -27 -2 -17 -5z"/>
<path d="M3220 820 c-9 -16 -8 -18 5 -14 8 4 15 12 15 20 0 20 -7 17 -20 -6z"/>
<path d="M3719 803 c-13 -16 -12 -17 4 -4 16 13 21 21 13 21 -2 0 -10 -8 -17
-17z"/>
<path d="M1519 776 c10 -11 7 -18 -11 -31 l-23 -17 25 7 c118 33 116 33 90 38
-76 17 -93 17 -81 3z"/>
<path d="M3215 760 c-3 -5 -1 -10 4 -10 6 0 11 -11 11 -25 0 -16 6 -25 16 -25
11 0 14 5 10 16 -3 9 -6 24 -6 35 0 20 -24 26 -35 9z"/>
<path d="M3406 704 c-9 -8 -21 -25 -27 -37 -9 -19 -8 -19 9 2 11 14 28 31 38
38 10 7 13 13 7 13 -7 0 -19 -7 -27 -16z"/>
<path d="M1614 702 c4 -7 22 -12 39 -12 18 0 43 -6 57 -13 56 -30 89 -36 123
-25 70 23 64 35 -25 41 -46 3 -110 9 -142 13 -44 5 -57 4 -52 -4z"/>
<path d="M1855 644 c-26 -13 -27 -14 -5 -10 14 3 31 6 38 6 6 0 12 5 12 10 0
13 -8 12 -45 -6z"/>
<path d="M1959 593 c-13 -15 -12 -15 9 -4 23 12 28 21 13 21 -5 0 -15 -7 -22
-17z"/>
<path d="M2250 590 c-8 -5 -11 -12 -7 -16 4 -4 15 0 24 9 18 18 8 23 -17 7z"/>
<path d="M2639 553 c-16 -19 8 -26 59 -17 26 4 59 6 75 5 15 -1 27 2 27 7 0
15 -150 20 -161 5z"/>
<path d="M2338 544 c-16 -8 -28 -17 -28 -19 0 -10 16 -4 40 15 30 23 25 25
-12 4z"/>
<path d="M3137 479 c-28 -22 -73 -97 -63 -106 3 -4 12 8 19 26 7 17 15 30 18
27 2 -2 16 14 31 35 15 21 27 39 25 39 -1 0 -15 -10 -30 -21z"/>
<path d="M2825 471 c-37 -18 -38 -19 -14 -20 15 -1 37 8 50 19 30 25 16 25
-36 1z"/>
</g>
</svg>
